<svg width="258" height="337" viewBox="0 0 258 337" fill="none" xmlns="http://www.w3.org/2000/svg">
<rect x="95.2926" y="80.3961" width="67.2003" height="27.2404" rx="3.6" stroke="url(#paint0_linear_8990_2201)" stroke-width="2.8"/>
<path d="M136.55 97.418H121.453V121.122H136.55V97.418Z" fill="url(#paint1_linear_8990_2201)"/>
<path d="M193.326 272.519C228.854 237.039 228.854 179.515 193.326 144.036C157.799 108.556 100.197 108.556 64.67 144.036C29.1425 179.515 29.1425 237.039 64.67 272.519C100.197 307.999 157.799 307.999 193.326 272.519Z" fill="#836662"/>
<path d="M193.324 271.164C228.852 235.684 228.852 178.16 193.324 142.68C157.797 107.2 100.196 107.2 64.668 142.68C29.1406 178.16 29.1406 235.684 64.668 271.164C100.196 306.643 157.797 306.643 193.324 271.164Z" fill="#D5AC83"/>
<path d="M128.998 298.318C179.242 298.318 219.973 257.642 219.973 207.466C219.973 157.289 179.242 116.613 128.998 116.613C78.7542 116.613 38.0234 157.289 38.0234 207.466C38.0234 257.642 78.7542 298.318 128.998 298.318Z" fill="url(#paint2_linear_8990_2201)"/>
<path d="M128.999 295.776C177.837 295.776 217.428 256.238 217.428 207.466C217.428 158.694 177.837 119.156 128.999 119.156C80.1612 119.156 40.5703 158.694 40.5703 207.466C40.5703 256.238 80.1612 295.776 128.999 295.776Z" fill="url(#paint3_linear_8990_2201)"/>
<path d="M129.457 284.421C172.125 284.421 206.715 249.878 206.715 207.267C206.715 164.656 172.125 130.113 129.457 130.113C86.7887 130.113 52.1992 164.656 52.1992 207.267C52.1992 249.878 86.7887 284.421 129.457 284.421Z" fill="url(#paint4_linear_8990_2201)"/>
<path d="M128.993 134.632C169.668 134.632 202.663 167.41 202.959 207.961C202.959 207.782 202.966 207.603 202.966 207.417C202.966 166.618 169.847 133.543 128.993 133.543C88.1389 133.543 55.0195 166.618 55.0195 207.417C55.0195 207.596 55.0264 207.775 55.0264 207.961C55.3231 167.417 88.3183 134.632 128.993 134.632Z" fill="#40140A"/>
<path d="M129.007 280.244C88.3319 280.244 55.3368 247.465 55.0401 206.914C55.0401 207.093 55.0332 207.272 55.0332 207.458C55.0332 248.258 88.1525 281.332 129.007 281.332C169.861 281.332 202.98 248.258 202.98 207.458C202.98 207.279 202.973 207.1 202.973 206.914C202.676 247.465 169.674 280.244 129.007 280.244Z" fill="#D5AC83"/>
<g filter="url(#filter0_i_8990_2201)">
<path d="M108.269 237.137C112.246 236.333 116.297 235.244 119.746 233.014C123.115 230.836 125.353 227.523 127.672 224.301C130.138 220.884 132.823 217.925 136.397 215.702C139.744 213.629 143.486 212.337 147.178 211.098C150.891 209.866 154.648 208.687 158.149 206.892C161.253 205.3 164.02 203.107 166.206 200.336C161.444 196.678 157.488 191.834 155.874 185.9C154.612 181.259 155.089 175.934 157.503 171.751C157.283 171.578 157.041 171.42 156.82 171.255C154.149 169.34 151.177 167.477 147.919 167.545C146.136 167.597 144.169 168.461 143.633 170.203C143.141 171.803 144.015 173.478 144.22 175.13C144.543 177.646 143.296 180.162 141.454 181.86C139.619 183.55 137.256 184.533 134.893 185.269C128.662 187.207 121.772 187.545 115.336 186.516C115.688 185.007 116.033 183.407 115.549 181.942C115.064 180.478 113.391 179.314 112.026 179.975C111.248 180.35 110.793 181.176 110.419 181.965C108.834 185.292 107.755 188.829 106.918 192.434C108.812 192.645 110.698 193.246 112.554 193.524C113.464 193.651 114.073 194.432 114.015 195.371C113.956 196.257 113.061 196.993 112.195 196.866C110.852 196.655 109.531 196.302 108.188 196.039C107.528 195.912 106.867 195.807 106.199 195.754C105.884 197.346 105.597 198.931 105.326 200.516C105.304 200.621 105.289 200.726 105.267 200.824C107.117 200.959 108.951 201.47 110.808 201.627C111.725 201.702 112.32 202.589 112.268 203.475C112.202 204.399 111.307 205.045 110.448 204.969C109.193 204.864 107.961 204.579 106.713 204.369C106.075 204.263 105.436 204.173 104.798 204.143H104.673C104.423 205.488 104.174 206.817 103.895 208.154C105.708 208.379 107.52 208.657 109.34 208.777C110.265 208.83 110.852 209.754 110.801 210.632C110.742 211.556 109.847 212.172 108.988 212.119C107.021 211.992 105.076 211.676 103.124 211.443C102.464 214.087 101.657 216.686 100.585 219.187C98.0608 225.09 93.8632 230.505 88.0878 233.074C86.2898 233.877 84.3451 234.403 82.6426 235.364C90.3113 239.826 99.8661 238.827 108.269 237.137ZM110.103 230.618C112.283 229.686 114.389 228.59 116.231 227.163C117.148 226.449 118.029 225.698 118.814 224.85C119.607 224.008 120.333 223.077 121.038 222.101C122.476 220.178 123.804 218.038 125.478 216.07C126.314 215.094 127.261 214.17 128.274 213.351C128.773 212.931 129.301 212.57 129.822 212.195C130.372 211.864 130.908 211.511 131.466 211.218C133.689 209.971 136.067 209.138 138.445 208.469C140.837 207.838 143.244 207.358 145.673 207.02C141.101 208.792 136.434 210.369 132.479 212.976C130.512 214.29 128.743 215.8 127.32 217.67C125.844 219.51 124.56 221.598 123.078 223.663C122.322 224.684 121.507 225.691 120.597 226.637C119.687 227.576 118.697 228.432 117.633 229.168C115.505 230.64 113.186 231.767 110.786 232.525C105.979 234.095 101.026 234.426 96.1455 234.448C100.908 233.352 105.722 232.45 110.103 230.618Z" fill="url(#paint5_linear_8990_2201)"/>
<path d="M168.233 197.384C170.368 193.794 171.674 189.709 171.953 185.533C171.087 184.324 170.155 183.159 169.179 182.048C166.537 179.036 163.551 176.362 160.402 173.914C158.568 177.346 158.296 181.515 159.36 185.315C160.755 190.279 164.27 194.32 168.233 197.384Z" fill="url(#paint6_linear_8990_2201)"/>
<path d="M155.757 218.46C160.094 217.033 163.984 214.637 167.308 211.573H177.376L171.953 210.642L168.805 210.109L163.565 209.207L170.331 208.411C173.531 204.769 175.637 200.946 177.369 196.297C176.731 194.171 175.879 192.129 174.837 190.176C173.722 195.26 171.307 200.06 167.829 203.897C165.121 206.902 161.87 209.177 158.23 210.852C154.443 212.602 150.429 213.744 146.496 215.111C142.812 216.395 139.091 217.874 135.98 220.323C132.655 222.951 130.505 226.639 127.944 229.966C125.229 233.496 121.993 236.253 117.934 238.017C113.722 239.843 109.143 240.751 104.644 241.45C96.3003 242.764 87.1932 242.629 79.8914 237.912C78.9667 239.414 78.6585 241.262 79.5758 242.719C81.3298 245.498 85.1238 246.842 88.316 247.398C89.226 247.556 90.1507 247.653 91.0753 247.699L91.0239 247.751H177.376L132.641 245.333L117.259 244.499L105.899 243.883L122.558 242.404C127.137 240.413 129.507 238.108 133.162 234.142C134.6 232.587 135.569 230.62 136.758 228.855H177.376L145.681 225.422L140.045 224.814L136.552 224.439L134.263 224.191L142.188 223.154C146.562 220.12 150.906 220.052 155.757 218.46Z" fill="url(#paint7_linear_8990_2201)"/>
</g>
<path d="M105.877 276.164L154.301 150.858L155.543 145.312C132.083 136.12 104.435 139.916 84.0531 157.529C54.7977 182.817 51.603 227 76.9255 256.216C85.0191 265.552 95.0308 272.222 105.877 276.164Z" fill="url(#paint8_linear_8990_2201)" fill-opacity="0.25"/>
<path d="M102.27 0H155.917V84.7617C155.917 85.1992 154.818 85.5544 153.464 85.5544H104.722C103.368 85.5544 102.27 85.1992 102.27 84.7617V0Z" fill="url(#paint9_linear_8990_2201)"/>
<defs>
<filter id="filter0_i_8990_2201" x="79.0234" y="167.543" width="98.3525" height="81.2081" filterUnits="userSpaceOnUse" color-interpolation-filters="sRGB">
<feFlood flood-opacity="0" result="BackgroundImageFix"/>
<feBlend mode="normal" in="SourceGraphic" in2="BackgroundImageFix" result="shape"/>
<feColorMatrix in="SourceAlpha" type="matrix" values="0 0 0 0 0 0 0 0 0 0 0 0 0 0 0 0 0 0 127 0" result="hardAlpha"/>
<feOffset dy="1"/>
<feGaussianBlur stdDeviation="0.5"/>
<feComposite in2="hardAlpha" operator="arithmetic" k2="-1" k3="1"/>
<feColorMatrix type="matrix" values="0 0 0 0 0 0 0 0 0 0 0 0 0 0 0 0 0 0 0.1 0"/>
<feBlend mode="normal" in2="shape" result="effect1_innerShadow_8990_2201"/>
</filter>
<linearGradient id="paint0_linear_8990_2201" x1="128.893" y1="78.027" x2="128.893" y2="110.006" gradientUnits="userSpaceOnUse">
<stop stop-color="#40140A"/>
<stop offset="0.046875" stop-color="#B07D5A"/>
<stop offset="0.510417" stop-color="#CC9D76"/>
<stop offset="0.947917" stop-color="#AE6E4A"/>
<stop offset="1" stop-color="#40140A"/>
</linearGradient>
<linearGradient id="paint1_linear_8990_2201" x1="121.453" y1="109.271" x2="136.55" y2="109.271" gradientUnits="userSpaceOnUse">
<stop stop-color="#723C28"/>
<stop offset="0.0454" stop-color="#79432D"/>
<stop offset="0.1107" stop-color="#8C563C"/>
<stop offset="0.1877" stop-color="#AB7554"/>
<stop offset="0.2399" stop-color="#C48E67"/>
<stop offset="0.333" stop-color="#B3744F"/>
<stop offset="0.3888" stop-color="#AD6A46"/>
<stop offset="0.5239" stop-color="#AD6C48"/>
<stop offset="0.549" stop-color="#B57954"/>
<stop offset="0.6114" stop-color="#C7956E"/>
<stop offset="0.6662" stop-color="#D1A67D"/>
<stop offset="0.7072" stop-color="#D5AC83"/>
<stop offset="0.7744" stop-color="#B88B68"/>
<stop offset="0.875" stop-color="#926046"/>
<stop offset="0.9536" stop-color="#7B4630"/>
<stop offset="1" stop-color="#723C28"/>
</linearGradient>
<linearGradient id="paint2_linear_8990_2201" x1="110.079" y1="296.348" x2="147.819" y2="118.557" gradientUnits="userSpaceOnUse">
<stop stop-color="#984F35"/>
<stop offset="0.0542" stop-color="#9D563A"/>
<stop offset="0.1321" stop-color="#AA6949"/>
<stop offset="0.2239" stop-color="#C08862"/>
<stop offset="0.2399" stop-color="#C48E67"/>
<stop offset="0.333" stop-color="#B3744F"/>
<stop offset="0.3888" stop-color="#AD6A46"/>
<stop offset="0.5239" stop-color="#AD6C48"/>
<stop offset="0.589" stop-color="#B57954"/>
<stop offset="0.7512" stop-color="#C7956E"/>
<stop offset="0.8935" stop-color="#D1A67D"/>
<stop offset="1" stop-color="#D5AC83"/>
</linearGradient>
<linearGradient id="paint3_linear_8990_2201" x1="177.172" y1="281.543" x2="81.0083" y2="133.265" gradientUnits="userSpaceOnUse">
<stop stop-color="#984F35"/>
<stop offset="0.0542" stop-color="#9D563A"/>
<stop offset="0.1321" stop-color="#AA6949"/>
<stop offset="0.2239" stop-color="#C08862"/>
<stop offset="0.2399" stop-color="#C48E67"/>
<stop offset="0.333" stop-color="#B3744F"/>
<stop offset="0.3888" stop-color="#AD6A46"/>
<stop offset="0.5239" stop-color="#AD6C48"/>
<stop offset="0.549" stop-color="#B57954"/>
<stop offset="0.6114" stop-color="#C7956E"/>
<stop offset="0.6662" stop-color="#D1A67D"/>
<stop offset="0.7072" stop-color="#D5AC83"/>
<stop offset="0.7403" stop-color="#CC9E78"/>
<stop offset="0.8561" stop-color="#B07354"/>
<stop offset="0.9465" stop-color="#9E593D"/>
<stop offset="1" stop-color="#984F35"/>
</linearGradient>
<linearGradient id="paint4_linear_8990_2201" x1="145.523" y1="131.779" x2="113.473" y2="282.768" gradientUnits="userSpaceOnUse">
<stop stop-color="#984F35"/>
<stop offset="0.0542" stop-color="#9D563A"/>
<stop offset="0.1321" stop-color="#AA6949"/>
<stop offset="0.2239" stop-color="#C08862"/>
<stop offset="0.2399" stop-color="#C48E67"/>
<stop offset="0.333" stop-color="#B3744F"/>
<stop offset="0.3888" stop-color="#AD6A46"/>
<stop offset="0.5239" stop-color="#AD6C48"/>
<stop offset="0.6301" stop-color="#B1734E"/>
<stop offset="0.7791" stop-color="#BC855F"/>
<stop offset="0.9526" stop-color="#CFA37A"/>
<stop offset="1" stop-color="#D5AC83"/>
</linearGradient>
<linearGradient id="paint5_linear_8990_2201" x1="124.42" y1="313.616" x2="124.42" y2="151.335" gradientUnits="userSpaceOnUse">
<stop offset="0.4863" stop-color="#924217"/>
<stop offset="0.9332" stop-color="#A35C2C"/>
</linearGradient>
<linearGradient id="paint6_linear_8990_2201" x1="165.34" y1="313.616" x2="165.34" y2="151.335" gradientUnits="userSpaceOnUse">
<stop offset="0.4863" stop-color="#924217"/>
<stop offset="0.9332" stop-color="#A35C2C"/>
</linearGradient>
<linearGradient id="paint7_linear_8990_2201" x1="128.198" y1="313.618" x2="128.198" y2="151.337" gradientUnits="userSpaceOnUse">
<stop offset="0.4863" stop-color="#924217"/>
<stop offset="0.9332" stop-color="#A35C2C"/>
</linearGradient>
<linearGradient id="paint8_linear_8990_2201" x1="107.691" y1="140.469" x2="107.691" y2="276.164" gradientUnits="userSpaceOnUse">
<stop stop-color="white"/>
<stop offset="1" stop-color="white" stop-opacity="0"/>
</linearGradient>
<linearGradient id="paint9_linear_8990_2201" x1="129.093" y1="0" x2="129.093" y2="85.5544" gradientUnits="userSpaceOnUse">
<stop offset="0.906796" stop-color="#890808"/>
<stop offset="1" stop-color="#440000"/>
</linearGradient>
</defs>
</svg>
